<svg height="512" viewBox="0 0 64 64" width="512" xmlns="http://www.w3.org/2000/svg"><g id="_10-Gold_pot" data-name="10-Gold pot"><path d="m7.33 10.33-1.33 2.67-1.33-2.67-2.67-1.33 2.67-1.33 1.33-2.67 1.33 2.67 2.67 1.33z" fill="#fbcb00"/><path d="m63 6-3.33 1.67-1.67 3.33-1.67-3.33-3.33-1.67 3.33-1.67 1.67-3.33 1.67 3.33z" fill="#fbcb00"/><path d="m16.81 57.19-4.98 4.98a2.83 2.83 0 0 1 -4.83-2v-.42a2.872 2.872 0 0 1 .37-1.4l3.33-5.83a25.555 25.555 0 0 0 6.11 4.67z" fill="#126e55"/><path d="m57 59.75v.42a2.828 2.828 0 0 1 -4.83 2l-4.98-4.98a25.555 25.555 0 0 0 6.11-4.67l3.33 5.83a2.872 2.872 0 0 1 .37 1.4z" fill="#126e55"/><path d="m16.81 57.19-4.98 4.98a2.831 2.831 0 0 1 -2 .83 2.742 2.742 0 0 1 -1.47-.42 2.919 2.919 0 0 0 .82-.71l1.16-1.45a3.009 3.009 0 0 0 -.54-4.28l-.82-.61 1.72-3.01a25.555 25.555 0 0 0 6.11 4.67z" fill="#135439"/><path d="m55.78 62.49a2.778 2.778 0 0 1 -1.61.51 2.831 2.831 0 0 1 -2-.83l-4.98-4.98a25.555 25.555 0 0 0 6.11-4.67l1.8 3.15-.62.47a3.01 3.01 0 0 0 -.55 4.28l1.17 1.45a2.659 2.659 0 0 0 .68.62z" fill="#135439"/><path d="m57 19v1a1 1 0 0 1 -1 1h-48a1 1 0 0 1 -1-1v-1a2.006 2.006 0 0 1 2-2h1a1 1 0 0 1 -1-1v-1a2.006 2.006 0 0 1 2-2h4a1 1 0 0 1 -1-1v-1a2.006 2.006 0 0 1 2-2h5a1 1 0 0 1 -1-1v-1a2.006 2.006 0 0 1 2-2h5a1 1 0 0 1 -1-1v-1a2.006 2.006 0 0 1 2-2h8a2.006 2.006 0 0 1 2 2v1a1 1 0 0 1 -1 1h5a2.006 2.006 0 0 1 2 2v1a1 1 0 0 1 -1 1h5a2.006 2.006 0 0 1 2 2v1a1 1 0 0 1 -1 1h4a2.006 2.006 0 0 1 2 2v1a1 1 0 0 1 -1 1h1a2.006 2.006 0 0 1 2 2z" fill="#fbcb00"/><path d="m5 39v4a2 2 0 0 1 -4 0v-6a2.006 2.006 0 0 1 2-2 1.955 1.955 0 0 1 1.41.59 1.955 1.955 0 0 1 .59 1.41z" fill="#fbcb00"/><path d="m63 37v6a2 2 0 0 1 -4 0v-6a2.006 2.006 0 0 1 2-2 2.015 2.015 0 0 1 2 2z" fill="#fbcb00"/><path d="m33 21h23a4 4 0 0 1 .06 8h-48.12a4 4 0 0 1 .06-8z" fill="#1db05f"/><path d="m60 25a4 4 0 0 1 -3.94 4h-48.12a4 4 0 0 1 .06-8h6.5a2.5 2.5 0 1 0 0 5h43.5a2 2 0 0 0 1.95-1.58 2.782 2.782 0 0 1 .05.58z" fill="#0f5d4d"/><path d="m56.06 29a18.726 18.726 0 0 1 2.94 10 19.492 19.492 0 0 1 -5.7 13.52 25.555 25.555 0 0 1 -6.11 4.67 31.324 31.324 0 0 1 -15.19 3.81 31.324 31.324 0 0 1 -15.19-3.81 25.555 25.555 0 0 1 -6.11-4.67 19.492 19.492 0 0 1 -5.7-13.52 18.726 18.726 0 0 1 2.94-10zm-17.08 15.51a1.854 1.854 0 0 0 -.83-3.51h-.49a4 4 0 0 0 -2.83 1.17 4 4 0 0 0 1.17-2.83v-.49a1.854 1.854 0 0 0 -3.51-.83l-.49.98-.49-.98a1.854 1.854 0 0 0 -3.51.83v.49a4 4 0 0 0 1.17 2.83 4 4 0 0 0 -2.83-1.17h-.49a1.854 1.854 0 0 0 -.83 3.51l.98.49-.98.49a1.854 1.854 0 0 0 .83 3.51h.49a4 4 0 0 0 2.83-1.17l2.83-2.83 2.83 2.83a4 4 0 0 0 2.83 1.17h.49a1.854 1.854 0 0 0 .83-3.51l-.98-.49z" fill="#1db05f"/><path d="m39 59h4.26a32.171 32.171 0 0 1 -11.26 2 31.324 31.324 0 0 1 -15.19-3.81 25.555 25.555 0 0 1 -6.11-4.67 19.492 19.492 0 0 1 -5.7-13.52 18.726 18.726 0 0 1 2.94-10h48.12a19.151 19.151 0 0 1 2.5 6h-39.56a4 4 0 0 0 -4 4c0 6.62 2.69 11.62 7.03 14.97s10.35 5.03 16.97 5.03z" fill="#1b7a52"/><path d="m36 38.85v.49a4 4 0 0 1 -1.17 2.83l-2.83 2.83-2.83-2.83a4 4 0 0 1 -1.17-2.83v-.49a1.854 1.854 0 0 1 3.51-.83l.49.98.49-.98a1.854 1.854 0 0 1 3.51.83z" fill="#27d674"/><path d="m32 45-2.83 2.83a4 4 0 0 1 -2.83 1.17h-.49a1.854 1.854 0 0 1 -.83-3.51l.98-.49-.98-.49a1.854 1.854 0 0 1 .83-3.51h.49a4 4 0 0 1 2.83 1.17z" fill="#27d674"/><path d="m40 42.85a1.854 1.854 0 0 1 -1.02 1.66l-.98.49.98.49a1.854 1.854 0 0 1 -.83 3.51h-.49a4 4 0 0 1 -2.83-1.17l-2.83-2.83 2.83-2.83a4 4 0 0 1 2.83-1.17h.49a1.852 1.852 0 0 1 1.85 1.85z" fill="#27d674"/><path d="m41 42.85a2.853 2.853 0 0 0 -2.85-2.85h-.49a4.984 4.984 0 0 0 -.712.052 4.974 4.974 0 0 0 .052-.712v-.49a2.856 2.856 0 0 0 -5-1.881 2.856 2.856 0 0 0 -5 1.881v.49a4.974 4.974 0 0 0 .052.712 4.984 4.984 0 0 0 -.712-.052h-.49a2.856 2.856 0 0 0 -1.881 5 2.856 2.856 0 0 0 1.881 5h.49a5.035 5.035 0 0 0 3.537-1.463l2.123-2.123 2.123 2.123a5.035 5.035 0 0 0 3.537 1.463h.49a2.856 2.856 0 0 0 1.881-5 2.842 2.842 0 0 0 .969-2.15zm-2.02 2.64a1.854 1.854 0 0 1 -.83 3.51h-.49a4 4 0 0 1 -2.83-1.17l-2.83-2.83-2.83 2.83a4 4 0 0 1 -2.83 1.17h-.49a1.854 1.854 0 0 1 -.83-3.51l.98-.49-.98-.49a1.854 1.854 0 0 1 .83-3.51h.49a4 4 0 0 1 2.83 1.17 4 4 0 0 1 -1.17-2.83v-.49a1.854 1.854 0 0 1 3.51-.83l.49.98.49-.98a1.854 1.854 0 0 1 3.51.83v.49a4 4 0 0 1 -1.17 2.83 4 4 0 0 1 2.83-1.17h.49a1.854 1.854 0 0 1 .83 3.51l-.98.49z" fill="#1b7a52"/><path d="m62 43a1 1 0 0 1 -1-1v-7a2.006 2.006 0 0 0 -2 2v6a2 2 0 0 0 4 0v-1a1 1 0 0 1 -1 1z" fill="#ff9b00"/><path d="m2 43a1 1 0 0 0 1-1v-7a2.006 2.006 0 0 1 2 2v6a2 2 0 0 1 -4 0v-1a1 1 0 0 0 1 1z" fill="#ff9b00"/><path d="m51.048 38.06c-.906.977-1.021 2.316-1.428 3.54a19 19 0 0 1 -2.333 4.7 7.377 7.377 0 0 0 -1.213 2.185 1.962 1.962 0 0 0 .762 2.2 2.559 2.559 0 0 0 1.15.3 6.015 6.015 0 0 0 4-1.339c2.953-2.317 4.173-6.341 3.995-9.776-.109-2.114-2.147-3.8-4.354-2.31a3.347 3.347 0 0 0 -.579.5z" fill="#27d674"/><path d="m31.51 38.02a1.854 1.854 0 0 0 -3.51.83v.49a4 4 0 0 0 1.17 2.83l2.83 2.83v-6z" fill="#24c46b"/><path d="m36 39.34v-.49a1.854 1.854 0 0 0 -3.51-.83l-.49.98v6l2.83-2.83a4 4 0 0 0 1.17-2.83z" fill="#2ae67c"/><path d="m25.02 45.49a1.854 1.854 0 0 0 .83 3.51h.49a4 4 0 0 0 2.83-1.17l2.83-2.83h-6z" fill="#27d674"/><path d="m26.34 41h-.49a1.854 1.854 0 0 0 -.83 3.51l.98.49h6l-2.83-2.83a4 4 0 0 0 -2.83-1.17z" fill="#40ff93"/><path d="m38.98 45.49-.98-.49h-6l2.83 2.83a4 4 0 0 0 2.83 1.17h.49a1.854 1.854 0 0 0 .83-3.51z" fill="#27d674"/><path d="m38.98 44.51a1.854 1.854 0 0 0 -.83-3.51h-.49a4 4 0 0 0 -2.83 1.17l-2.83 2.83h6z" fill="#40ff93"/><rect fill="#ffe580" height="4" rx="1" width="2" x="61" y="37"/><rect fill="#ffe580" height="4" rx="1" width="2" x="1" y="37"/><rect fill="#27d674" height="3" rx="1.5" width="30" x="17" y="21"/><rect fill="#27d674" height="3" rx="1.5" width="5" x="50" y="21"/><path d="m30 1v4h-3a1 1 0 0 1 -1-1v-1a2.006 2.006 0 0 1 2-2z" fill="#fbcb00"/><path d="m38 3v1a1 1 0 0 1 -1 1h-3v-4h2a2.006 2.006 0 0 1 2 2z" fill="#fbcb00"/><path d="m31 1h3v4h-1-2-1v-4z" fill="#fbac00"/><path d="m34 3v2h3a1 1 0 0 0 1-1v-1z" fill="#fb9700"/><path d="m30 3v2h-3a1 1 0 0 1 -1-1v-1z" fill="#fb9700"/><path d="m30 3v2h1 2 1v-2z" fill="#f58300"/><path d="m32 5v4h-3a1 1 0 0 1 -1-1v-1a2.006 2.006 0 0 1 2-2z" fill="#fbcb00"/><path d="m40 7v1a1 1 0 0 1 -1 1h-3v-4h2a2.006 2.006 0 0 1 2 2z" fill="#fbcb00"/><path d="m33 5h3v4h-1-2-1v-4z" fill="#fbac00"/><path d="m36 7v2h3a1 1 0 0 0 1-1v-1z" fill="#fb9700"/><path d="m32 7v2h-3a1 1 0 0 1 -1-1v-1z" fill="#fb9700"/><path d="m32 7v2h1 2 1v-2z" fill="#f58300"/><path d="m42 9v4h-3a1 1 0 0 1 -1-1v-1a2.006 2.006 0 0 1 2-2z" fill="#fbcb00"/><path d="m50 11v1a1 1 0 0 1 -1 1h-3v-4h2a2.006 2.006 0 0 1 2 2z" fill="#fbcb00"/><path d="m43 9h3v4h-1-2-1v-4z" fill="#fbac00"/><path d="m46 11v2h3a1 1 0 0 0 1-1v-1z" fill="#fb9700"/><path d="m42 11v2h-3a1 1 0 0 1 -1-1v-1z" fill="#fb9700"/><path d="m42 11v2h1 2 1v-2z" fill="#f58300"/><path d="m18 9v4h-3a1 1 0 0 1 -1-1v-1a2.006 2.006 0 0 1 2-2z" fill="#fbcb00"/><path d="m26 11v1a1 1 0 0 1 -1 1h-3v-4h2a2.006 2.006 0 0 1 2 2z" fill="#fbcb00"/><path d="m19 9h3v4h-1-2-1v-4z" fill="#fbac00"/><path d="m22 11v2h3a1 1 0 0 0 1-1v-1z" fill="#fb9700"/><path d="m18 11v2h-3a1 1 0 0 1 -1-1v-1z" fill="#fb9700"/><path d="m18 11v2h1 2 1v-2z" fill="#f58300"/><path d="m47 13v4h-3a1 1 0 0 1 -1-1v-1a2.006 2.006 0 0 1 2-2z" fill="#fbcb00"/><path d="m55 15v1a1 1 0 0 1 -1 1h-3v-4h2a2.006 2.006 0 0 1 2 2z" fill="#fbcb00"/><path d="m48 13h3v4h-1-2-1v-4z" fill="#fbac00"/><path d="m51 15v2h3a1 1 0 0 0 1-1v-1z" fill="#fb9700"/><path d="m47 15v2h-3a1 1 0 0 1 -1-1v-1z" fill="#fb9700"/><path d="m47 15v2h1 2 1v-2z" fill="#f58300"/><path d="m13 13v4h-3a1 1 0 0 1 -1-1v-1a2.006 2.006 0 0 1 2-2z" fill="#fbcb00"/><path d="m21 15v1a1 1 0 0 1 -1 1h-3v-4h2a2.006 2.006 0 0 1 2 2z" fill="#fbcb00"/><path d="m14 13h3v4h-1-2-1v-4z" fill="#fbac00"/><path d="m17 15v2h3a1 1 0 0 0 1-1v-1z" fill="#fb9700"/><path d="m13 15v2h-3a1 1 0 0 1 -1-1v-1z" fill="#fb9700"/><path d="m13 15v2h1 2 1v-2z" fill="#f58300"/><path d="m11 17v4h-3a1 1 0 0 1 -1-1v-1a2.006 2.006 0 0 1 2-2z" fill="#fbcb00"/><path d="m19 19v1a1 1 0 0 1 -1 1h-3v-4h2a2.006 2.006 0 0 1 2 2z" fill="#fbcb00"/><path d="m12 17h3v4h-1-2-1v-4z" fill="#fbac00"/><path d="m15 19v2h3a1 1 0 0 0 1-1v-1z" fill="#fb9700"/><path d="m11 19v2h-3a1 1 0 0 1 -1-1v-1z" fill="#fb9700"/><path d="m11 19v2h1 2 1v-2z" fill="#f58300"/><path d="m49 17v4h-3a1 1 0 0 1 -1-1v-1a2.006 2.006 0 0 1 2-2z" fill="#fbcb00"/><path d="m57 19v1a1 1 0 0 1 -1 1h-3v-4h2a2.006 2.006 0 0 1 2 2z" fill="#fbcb00"/><path d="m50 17h3v4h-1-2-1v-4z" fill="#fbac00"/><path d="m53 19v2h3a1 1 0 0 0 1-1v-1z" fill="#fb9700"/><path d="m49 19v2h-3a1 1 0 0 1 -1-1v-1z" fill="#fb9700"/><path d="m49 19v2h1 2 1v-2z" fill="#f58300"/><path d="m30 17v4h-3a1 1 0 0 1 -1-1v-1a2.006 2.006 0 0 1 2-2z" fill="#fbcb00"/><path d="m38 19v1a1 1 0 0 1 -1 1h-3v-4h2a2.006 2.006 0 0 1 2 2z" fill="#fbcb00"/><path d="m31 17h3v4h-1-2-1v-4z" fill="#fbac00"/><path d="m34 19v2h3a1 1 0 0 0 1-1v-1z" fill="#fb9700"/><path d="m30 19v2h-3a1 1 0 0 1 -1-1v-1z" fill="#fb9700"/><path d="m30 19v2h1 2 1v-2z" fill="#f58300"/><path d="m30 11v4h-3a1 1 0 0 1 -1-1v-1a2.006 2.006 0 0 1 2-2z" fill="#fbcb00"/><path d="m38 13v1a1 1 0 0 1 -1 1h-3v-4h2a2.006 2.006 0 0 1 2 2z" fill="#fbcb00"/><path d="m31 11h3v4h-1-2-1v-4z" fill="#fbac00"/><path d="m34 13v2h3a1 1 0 0 0 1-1v-1z" fill="#fb9700"/><path d="m30 13v2h-3a1 1 0 0 1 -1-1v-1z" fill="#fb9700"/><path d="m30 13v2h1 2 1v-2z" fill="#f58300"/><g fill="#fff8de"><path d="m36 3h1v1h-1z" transform="matrix(-1 0 0 -1 73 7)"/><path d="m24 6h1v1h-1z" transform="matrix(-1 0 0 -1 49 13)"/><path d="m26 8h1v1h-1z" transform="matrix(-1 0 0 -1 53 17)"/><path d="m34 1h1v1h-1z" transform="matrix(-1 0 0 -1 69 3)"/><path d="m45 15h1v1h-1z" transform="matrix(-1 0 0 -1 91 31)"/><path d="m43 13h1v1h-1z" transform="matrix(-1 0 0 -1 87 27)"/><path d="m37 13h1v1h-1z" transform="matrix(-1 0 0 -1 75 27)"/><path d="m35 11h1v1h-1z" transform="matrix(-1 0 0 -1 71 23)"/><path d="m20 15h1v1h-1z" transform="matrix(-1 0 0 -1 41 31)"/><path d="m18 13h1v1h-1z" transform="matrix(-1 0 0 -1 37 27)"/><path d="m26 19h1v1h-1z" transform="matrix(-1 0 0 -1 53 39)"/><path d="m24 17h1v1h-1z" transform="matrix(-1 0 0 -1 49 35)"/></g></g></svg>