<?xml version="1.0"?>
<svg xmlns="http://www.w3.org/2000/svg" xmlns:xlink="http://www.w3.org/1999/xlink" xmlns:svgjs="http://svgjs.com/svgjs" version="1.1" width="512" height="512" x="0" y="0" viewBox="0 0 32 32" style="enable-background:new 0 0 512 512" xml:space="preserve" class=""><g><g xmlns="http://www.w3.org/2000/svg" id="Layer_56"><path d="m15 16v7c0 1.6543-1.3457 3-3 3h-6.9502c-.3398 0-.6572-.1729-.8408-.459-1.334-2.0732-2.209-3.6484-2.209-6.541 0-1.8809.3633-3.6943 1.0791-5.3887 2.2422-5.3945 5.4043-7.6015 10.9092-7.6113h.002c.4766 0 .8867.3359.9805.8027.0938.4678-.1553.9365-.5957 1.1201-2.6388 1.0997-3.4317 2.3877-4.3605 5.0772h1.9854c1.6543 0 3 1.3457 3 3zm12-3h-1.9854c.9287-2.6895 1.7217-3.9775 4.3604-5.0771.4404-.1836.6895-.6523.5957-1.1201-.0937-.4669-.5039-.8028-.9805-.8028-.001 0-.001 0-.002 0-5.5049.0098-8.667 2.2168-10.9092 7.6113-.7157 1.6944-1.079 3.5078-1.079 5.3887 0 2.8926.875 4.4678 2.209 6.541.1836.2861.501.459.8408.459h6.9502c1.6543 0 3-1.3457 3-3v-7c0-1.6543-1.3457-3-3-3z" fill="currentColor" opacity="0.3" data-original="#000000" class=""/></g></g></svg>
