<svg id="icon" height="512" viewBox="0 0 340 340" width="512" xmlns="http://www.w3.org/2000/svg"><ellipse cx="312.037" cy="142.907" fill="#c45178" rx="10.97" ry="9.937" transform="matrix(.37 -.929 .929 .37 63.788 379.892)"/><ellipse cx="161.023" cy="64.146" fill="#c45178" rx="12.315" ry="9.747" transform="matrix(.475 -.88 .88 .475 28.093 175.38)"/><path d="m296.822 37.77-11.809-6.928 7.147-12.184-14.76-8.658-7.147 12.183-11.81-6.928-8.66 14.761 11.81 6.928-8.029 14.074c5.185 3.068 11.385 3.667 18.4 2.274l4.386-7.688 11.809 6.928z" fill="#ffc362"/><path d="m253.563 51.017-12.281 21.526 14.761 8.66 15.924-27.912z" fill="#fa883e"/><path d="m51.141 72.629s17.34-5.23 46.745-5.616l1.763 32.357a20.535 20.535 0 0 1 -3.305 12.335l-3.313 5.081a11.329 11.329 0 0 0 -1.806 7.082l1.086 17.215-17.833 5.053-1.491-17.414a11.336 11.336 0 0 0 -4.111-7.8l-7.687-6.3a20.532 20.532 0 0 1 -7.434-13.978z" fill="#fa883e"/><path d="m154.889 134.761a106.941 106.941 0 0 0 -17.26 1.62v-2.766a6.807 6.807 0 0 0 -5.957-6.754l-18.69-2.353a7.562 7.562 0 0 0 -8.031 4.865l-1.334 3.585-6.347.859c-7.688 1.43-20.978 5.158-32 14.68l-5.555 34.243 157.061 1.34z" fill="#ffc362"/><path d="m219.616 49.343s20.573-1.394 34.173 16.041a66.393 66.393 0 0 1 33.475 18.973s23.712 12.9 13.949 46.481-39.62 41.249-39.62 41.249l-89.75-49.516s-26.152-70.089 47.773-73.228z" fill="#6d68b7"/><path d="m249.549 120.111c4.925-17.441 11.826-42.808 11.8-47.907l-41.469 52.245-14.633-7.21c-12.1-6.537-18.229-14.752-16.888-32.882 1.088-14.719 13.281-30.385 13.281-30.385l-20.109 6.29c-24.507 20.928-9.611 60.873-9.611 60.873l89.75 49.516s29.855-7.672 39.619-41.25c3.911-13.449 2.446-23.574-.709-30.889l-8.059-6.26s4.146 38.7-27.549 44.892c-9.821 1.919-18.143-7.402-15.423-17.033z" fill="#4d5284"/><path d="m70.338 213.413v102.156h5.072v-.362a14.853 14.853 0 0 1 14.852-14.853h138.744a14.852 14.852 0 0 1 14.852 14.853v.362h5.072v-102.156z" fill="#d88783"/><path d="m70.338 213.413h178.591v15.616h-178.591z" fill="#874f4f"/><path d="m173.943 135.1s-8.955-.6-19.054-.335c4.32 7.964 17.391 28.727 43.341 44.511h-100.96s-13.141 1.583-22.988-4.34a8.848 8.848 0 0 1 -3.644-10.707c3.279-8.7-1.806-14.144-1.806-14.144l-8.227 2.993c-7.44 8.241-13.069 19.824-13.813 36.142h225.684v-9.2z" fill="#fa883e"/><path d="m75.41 330h-28.618v-100.971c9.878-2.087 19.443-2.248 28.618 0z" fill="#e4efff"/><path d="m243.858 330h28.618v-100.971a61.251 61.251 0 0 0 -28.618 0z" fill="#e4efff"/><path d="m307.072 220.345c-.96 8.859-4.276 23.613-15.647 28.331a1.745 1.745 0 0 0 -.558 2.9 53.076 53.076 0 0 1 15.8 29.053.72.72 0 0 0 1.417-.01c1.334-7.955 5.476-22.056 18.27-28.182a1.745 1.745 0 0 0 .148-3.091c-5.092-2.981-14.332-10.755-18-29.061a.723.723 0 0 0 -1.43.06z" fill="#ffc362"/><path d="m243.858 213.413h28.618v15.616h-28.618z" fill="#7f91bf"/><path d="m135.433 252.989a13.357 13.357 0 0 0 .979 4.981h46.807a13.357 13.357 0 0 0 .978-4.981v-52.73h-48.764z" fill="#874f4f"/><path d="m46.792 213.413h28.618v15.616h-28.618z" fill="#7f91bf"/><path d="m27.906 20.8c-1.582 8.617-5.471 21.823-14.774 26.923a1.991 1.991 0 0 0 -.206 3.317 41.818 41.818 0 0 1 15.617 28.247.9.9 0 0 0 1.765.124c2.078-7.653 6.983-20.3 17.687-27.084a1.989 1.989 0 0 0 -.163-3.435c-5.432-2.844-15.294-10.341-18.141-28.08a.907.907 0 0 0 -1.785-.012z" fill="#ffc362"/><path d="m175.573 108.166c-.926-9.826.159-22.638 8.126-34.762 16.041-24.404 35.917-24.061 35.917-24.061s-23.435-14.679-44.633 3.324a44.079 44.079 0 0 0 -14.246 24.262 58.764 58.764 0 0 0 -1.366 16.006c4.1 9.265 9.719 13.642 16.202 15.231z" fill="#ffc362"/><path d="m257.952 62.476a8.213 8.213 0 0 1 3.32 11.164c-6.681 12.262-20.313 38.544-30.3 66.146a22.2 22.2 0 0 1 -17.817-8.339c6.324-15.805 18.988-44.933 34.225-66.521a8.192 8.192 0 0 1 10.572-2.45z" fill="#ffc362"/><path d="m287.264 84.357s15.409 16.919 3.736 49.566c-13 36.357-42.07 29.447-42.07 29.447l33.1 13.948s17.657-5.638 29.291-38.358c14.779-41.546-24.057-54.603-24.057-54.603z" fill="#fa883e"/><ellipse cx="235.541" cy="102.21" fill="#ff6a84" rx="14.804" ry="13.026" transform="matrix(.448 -.894 .894 .448 38.613 266.97)"/><path d="m75.761 185.728a9 9 0 0 1 3.248-9.677c3.929-2.963 10.488-6.8 20.409-9.43a9 9 0 0 1 9.533 3.307l.446.6a8.951 8.951 0 0 1 -1.9 12.613 53.43 53.43 0 0 1 -21.475 8.936 8.977 8.977 0 0 1 -10.261-6.349z" fill="#fa883e"/><path d="m132.509 191.657s-6.631-12.161 8.557-18.7 34.225-2.562 29.305 15.235z" fill="#fa883e"/><path d="m189.447 142.907-6.3 11.478a6.9 6.9 0 0 0 .818 7.868c3.993 4.546 9.589 7.738 16.262 10.022a6.939 6.939 0 0 0 7.309-1.835l9.24-9.887z" fill="#fa883e"/><path d="m275.918 217.036h-93.636a95.961 95.961 0 0 0 -45.3 0h-93.269a8.876 8.876 0 0 1 -8.876-8.876v-12.678a8.876 8.876 0 0 1 8.876-8.876h232.205a8.876 8.876 0 0 1 8.875 8.876v12.678a8.876 8.876 0 0 1 -8.875 8.876z" fill="#e4efff"/><rect fill="#c45178" height="21.786" rx="6.759" transform="matrix(.999 -.047 .047 .999 -4.278 3.709)" width="13.518" x="70.602" y="82.657"/><g fill="#3c3c4f"><circle cx="61.101" cy="201.315" r="3.559"/><circle cx="61.101" cy="257.97" r="3.559"/><circle cx="61.101" cy="302.464" r="3.559"/><circle cx="258.167" cy="201.315" r="3.559"/><circle cx="258.167" cy="257.97" r="3.559"/><circle cx="258.167" cy="302.464" r="3.559"/><circle cx="207.28" cy="257.97" r="3.559"/><circle cx="208.806" cy="201.315" r="3.559"/><circle cx="110.462" cy="201.315" r="3.559"/><circle cx="69.333" cy="50.297" r="3.559"/></g><path d="m159.385 92.934a42.374 42.374 0 0 0 6.531 20.677l13.6 11.4a60.507 60.507 0 0 1 -3.939-16.846 104.5 104.5 0 0 1 -16.192-15.231z" fill="#fa883e"/><path d="m222.829 136.132q-5.084-2.36-9.678-4.684c-2.788 6.966-4.345 11.348-4.345 11.348l18.133 8.864c1.244-3.948 2.593-7.907 4.016-11.839-2.655-1.181-5.349-2.401-8.126-3.689z" fill="#fa883e"/><path d="m222.307 167.9a436.67 436.67 0 0 1 -66.13-40.627 7.434 7.434 0 0 1 -1.677-10.119l1.068-1.574a7.43 7.43 0 0 1 10.348-1.964 528.36 528.36 0 0 0 78.705 44.167c0 7.023-11.897 12.217-22.314 10.117z" fill="#ffc362"/><path d="m282.2 190.769a7.438 7.438 0 0 0 8.751-4.4l.943-2.313a7.441 7.441 0 0 0 -4.676-9.9 392.763 392.763 0 0 1 -42.581-16.376h-.013s-6.624 7.82-22.314 10.109c18.112 8.963 38.523 17.319 59.89 22.88z" fill="#fa883e"/><path d="m67.58 146.928a9.54 9.54 0 0 1 -.189 11.281l-7.113 9.367a9.49 9.49 0 0 1 -12.641 2.324c-.683-.437-1.381-.921-2.083-1.455a9.474 9.474 0 0 1 -1.982-13 48.966 48.966 0 0 1 10.437-10.6 9.559 9.559 0 0 1 13.571 2.083z" fill="#ffc362"/><path d="m136.986 217.036h45.3v-7.236a12.047 12.047 0 0 0 -12.047-12.047h-21.2a12.047 12.047 0 0 0 -12.053 12.047z" fill="#7f91bf"/><rect fill="#e4efff" height="51.44" rx="7.607" width="28.256" x="145.687" y="206.53"/><path d="m330.926 247.617c-.776-.217-19.016-5.643-19.972-34.32a3.5 3.5 0 0 0 -7 .189c.006.288.413 28.787-16.24 32.719a3.517 3.517 0 0 0 -.865 6.482c.171.093 17.1 9.558 17.1 33.663.065 4.519 6.811 4.644 7 .085.007-.259.894-25.984 20.114-32.106a3.516 3.516 0 0 0 -.137-6.712zm-23.071 20.733a44.4 44.4 0 0 0 -12.237-17.857c6.372-3.787 10.1-10.4 12.285-17.015a37.239 37.239 0 0 0 13.958 17.422c-7.131 4.4-11.423 11.076-14.006 17.45z" fill="#3c3c4f"/><path d="m25.442 85.786a3.5 3.5 0 0 0 7 .085c.007-.259.894-25.985 20.113-32.107a3.5 3.5 0 0 0 -.142-6.712c-.777-.216-19.017-5.642-19.972-34.32-.232-4.542-7.019-4.4-7 .191.006.287.413 28.786-16.241 32.717a3.518 3.518 0 0 0 -.865 6.483c.174.092 17.107 9.557 17.107 33.663zm3.946-52.872a37.239 37.239 0 0 0 13.959 17.418c-7.131 4.4-11.423 11.08-14.006 17.454a44.383 44.383 0 0 0 -12.241-17.858c6.375-3.787 10.106-10.402 12.288-17.014z" fill="#3c3c4f"/><path d="m307.5 156.09c16.943 4.5 25.189-20.52 9.979-27.726 3.042-31.442-23.351-44.778-28.193-46.944a69.884 69.884 0 0 0 -20.916-14.766l9.265-16.239 8.755 5.134a3.5 3.5 0 0 0 4.789-1.247l8.66-14.76a3.521 3.521 0 0 0 -1.247-4.79l-8.792-5.159 5.377-9.163a3.521 3.521 0 0 0 -1.247-4.79l-14.76-8.66a3.521 3.521 0 0 0 -4.79 1.247l-5.38 9.165-8.79-5.157a3.52 3.52 0 0 0 -4.79 1.247l-8.66 14.761a3.521 3.521 0 0 0 1.247 4.79l8.828 5.18-9.305 16.31a47.124 47.124 0 0 0 -27.052-8.706c-5.712-3.7-31.931-12.954-50.595 6.818l-3.559-1.63c-6.039-2.6-13.407.648-17.114 7.509-3.87 7.171-2.113 15.653 3.966 18.934l3.539 1.837c-1.445 8.394-1.673 19.223 2.832 29.751-3.539.636-6.169 3.13-7.946 6.147-3.817 5.53-1.58 12.765 4.046 16.059a131.783 131.783 0 0 0 -14.609 1.026 10.33 10.33 0 0 0 -8.932-8.88l-18.69-2.352c-5.843-.756-10.8 3.1-12.317 8.645-1.441.171-3.482.467-5.942.972-.569-9.9-1.6-8.676 4.116-17.036a23.879 23.879 0 0 0 3.867-14.438l-1.762-32.357a3.517 3.517 0 0 0 -3.541-3.31c-29.558.389-46.983 5.547-47.71 5.767a3.5 3.5 0 0 0 -2.474 3.676l2.614 28.014a24.19 24.19 0 0 0 8.7 16.362c12.871 10.374 9.8 6.947 11.5 23.008q-1.353.849-2.694 1.785c-10.815-8.012-20.919 3.188-27.054 11.3-4.792 6.615-1.926 15.835 5.141 19.5a67.4 67.4 0 0 0 -2.046 10.188 12.392 12.392 0 0 0 -12.479 12.375v12.68a12.382 12.382 0 0 0 11.955 12.354v109.479a3.5 3.5 0 0 0 3.5 3.5h28.62a3.5 3.5 0 0 0 3.5-3.5v-15.117a11.308 11.308 0 0 1 11.352-11.029h138.744a11.366 11.366 0 0 1 11.352 11.353v14.793a3.5 3.5 0 0 0 3.5 3.5h28.618a3.5 3.5 0 0 0 3.5-3.5v-109.467a12.388 12.388 0 0 0 12.317-12.372c-.045-1.143.131-13.7-.143-14.465 3.55-1.275 5.83-4.752 6.983-8.321a10.9 10.9 0 0 0 -1.8-11.175 66.708 66.708 0 0 0 14.167-18.11zm9.845-10.266a6.863 6.863 0 0 1 -6.679 3.77 134.1 134.1 0 0 0 5.381-13.949c2.925 2.389 2.953 6.785 1.3 10.179zm-21.071-51.9c7.716 6.278 16.553 17.635 14.017 35.8-.716 5.132-5.78 16.648-7.707 20.731-5.5 10.652-11.4 16.669-15.629 19.937q-8.8-2.817-17.329-6.046c23.665-8.846 34.69-50.111 26.65-70.42zm-11.584-7.194c13.484 12.88 8.268 68.651-25.816 73.38-9.436-3.874-18.492-8-27.035-12.185 3.216-9.589 7.249-19.957 12.018-30.866a20.025 20.025 0 0 0 8.451-18.318c5.395-11.574 9.8-18.422 13-25.792a62.709 62.709 0 0 1 19.384 13.783zm-103.372 32.839c-2.217-7.527-6.16-26.781 5.306-44.243 18.722-26.961 39.989-27.474 58.825-13.56-5.256 6.872-9.76 14.677-14.811 23.76-8.4 3.121-14.01 14.081-11.394 22.851-5.093 11.087-9 20.784-11.394 26.99-10.25-5.713-19.226-11.155-26.532-15.798zm62.738-13.09c-3.741 8.026-15.412 9.648-18.056.072-2.043-6.869 4-15.5 10.908-15.311 7.278.051 10.653 8.402 7.148 15.239zm-.312-20.633a14.993 14.993 0 0 0 -4.491-1.411c3.7-6.517 7.382-12.39 10.982-17.491 2.089-3.164 7.382-2.25 8.343 1.421a4.687 4.687 0 0 1 -.379 3.6c-2.313 4.245-5.633 10.494-9.384 18.018a15.07 15.07 0 0 0 -5.071-4.137zm-20.2 30.009a15.042 15.042 0 0 0 11.381 4.294c-3.621 8.609-6.772 16.858-9.405 24.624q-5.931-3.012-11.474-6.007c1.997-5.23 5.247-13.386 9.495-22.911zm39.823-81.931-8.792-5.158 5.118-8.722 8.79 5.157a3.52 3.52 0 0 0 4.79-1.247l5.377-9.165 8.724 5.118-5.377 9.163a3.52 3.52 0 0 0 1.247 4.79l8.792 5.158-5.119 8.723-8.791-5.156a3.5 3.5 0 0 0 -4.81 1.284l-10.383 18.2a11.769 11.769 0 0 0 -9.326-4.069l11.025-19.326a3.5 3.5 0 0 0 -1.268-4.75zm-86.119 21.411c11.043-9.379 22.693-9.028 30.656-7-25.63 10.225-40.531 39.184-35.04 65.737q-2.43-1.615-4.425-2.98c-10.867-18.844-5.378-43.692 8.809-55.757zm-21.875 6.5c2.507-4.389 6.385-5.85 9.825-3.651a48.555 48.555 0 0 0 -6.786 14.09l-1.958-1.016c-2.588-1.394-3.083-5.709-1.081-9.42zm-78.9 66.585a14.923 14.923 0 0 0 -5.381-10.212l-7.687-6.3a17.141 17.141 0 0 1 -6.167-11.6l-2.338-25.04c5.613-1.342 19.564-4.155 39.673-4.689l1.581 28.981a16.931 16.931 0 0 1 -2.741 10.233c-7.043 9.994-5.865 10.956-5.158 22.6a76.424 76.424 0 0 0 -11.076 4.26zm-30.052 29.06c2.622-3.367 8.563-10.922 13.358-11.077 4.844-.167 7.894 5.917 4.822 9.686l-7.112 9.367c-4.86 6.38-15.633-1.415-11.066-7.973zm6.164 17.37a13.109 13.109 0 0 0 10.478-5.16l7.113-9.366a12.981 12.981 0 0 0 1.784-12.584c10.433-7.234 22.03-9.883 27.933-10.811a10.9 10.9 0 0 0 9.541 9.128l12.158 1.349a3.5 3.5 0 0 0 .772-6.957l-12.159-1.349a3.9 3.9 0 0 1 -3.265-5.036l1.291-3.47a4.052 4.052 0 0 1 4.314-2.613l18.69 2.353c5.011.872 1.221 6.439 4.175 8.754a3.493 3.493 0 0 0 2.905.724c8.333-1.666 20.144-1.713 27.093-1.557 4.773 3.327 10.341 7.056 16.566 10.992-3.227 5.13-4.9 10.183-.638 15.315 4.182 4.761 9.991 8.367 17.757 11.025 7.389 2.369 11.107-2.794 15.535-7.609 10.312 5.321 21.445 10.5 33.16 15.128h-73.14c.707-24.434-43.9-19.619-46.883 0h-15.372c6.838-9.414-2.659-23-13.873-19.868-10.629 2.82-17.623 7.006-21.618 10.018a12.427 12.427 0 0 0 -5 9.85h-21.043a59.842 59.842 0 0 1 1.728-8.253zm133.628-18.784 1.713-3.12c6.231 3.8 13.023 7.738 20.279 11.646l-3.227 3.454a3.436 3.436 0 0 1 -3.62.914c-5.394-1.778-17.917-7.854-15.143-12.891zm-18.576 27.037h-32.7c4.106-11.125 33.528-14.427 32.702.003zm-88.73 0c-.263-5.329 12.338-10.547 21.406-13.1 5.71-1.7 10.187 6.833 5.144 10.294a45.55 45.55 0 0 1 -4.45 2.809zm-28.615 143.397v-105.964h21.618v105.964zm98.9-76.136v-36.227a4.113 4.113 0 0 1 4.108-4.107h13.041a4.112 4.112 0 0 1 4.107 4.107v36.226a4.112 4.112 0 0 1 -4.107 4.107h-13.046a4.112 4.112 0 0 1 -4.108-4.107zm-6.2 4.107h-64.082v-33.935h63.277c.289 2.743-.769 32.22.797 33.934zm86.022 42.384h-138.752a18.313 18.313 0 0 0 -11.352 3.9v-39.285h107.673c4.593-.076 4.607-6.921 0-7h-9.937c1.557-1.6.514-31.324.8-33.934h62.915v33.934h-12.385a3.5 3.5 0 1 0 0 7h12.382v39.345a18.247 18.247 0 0 0 -11.352-3.961zm18.344 29.645v-105.964h21.618v105.964zm33.935-118.338a5.382 5.382 0 0 1 -5.376 5.375h-98.5a11.111 11.111 0 0 0 -11.076-10.506h-13.046a11.111 11.111 0 0 0 -11.077 10.506h-98.5a5.382 5.382 0 0 1 -5.376-5.375v-12.68a5.382 5.382 0 0 1 5.376-5.375h223.666c4.514 1.438 9.083 2.78 13.7 3.988.391.046.146 13.465.209 14.066zm7.358-25.427c-.962 2.707-2.124 5.373-5.572 4.648-58.279-15.171-110.257-51.99-124.8-62.913a3.927 3.927 0 0 1 -.885-5.354l1.069-1.573a3.947 3.947 0 0 1 5.474-1.043c18.25 12.5 66.693 43.473 122.225 60.991a3.96 3.96 0 0 1 2.489 5.243z" fill="#3c3c4f"/><path d="m87.416 88.942c-1.191-13.575-20.568-12.659-20.5.957l.386 8.259a10.259 10.259 0 1 0 20.498-.958zm-9.716 11.993a3.277 3.277 0 0 1 -3.406-3.1l-.385-8.259a3.259 3.259 0 0 1 6.511-.3l.385 8.259a3.265 3.265 0 0 1 -3.105 3.4z" fill="#3c3c4f"/><path d="m159.815 222.824a3.5 3.5 0 0 0 -3.5 3.5v10.156a3.5 3.5 0 0 0 7 0v-10.156a3.5 3.5 0 0 0 -3.5-3.5z" fill="#3c3c4f"/></svg>