<svg id="Layer_1" enable-background="new 0 0 512 512" height="512" viewBox="0 0 512 512" width="512" xmlns="http://www.w3.org/2000/svg"><g id="XMLID_1330_"><path id="XMLID_1343_" d="m408 10h-304c-51.915 0-93.999 42.085-93.999 94h492c-.001-51.914-42.086-94-94.001-94z" fill="#ffcd69"/><path id="XMLID_1342_" d="m502 256-55.5-55.682h-381l-55.5 55.682z" fill="#c193dc"/><path id="XMLID_1341_" d="m502 104-55.373 96.317h-381l-55.5-96.317z" fill="#d1aee5"/><path id="XMLID_403_" d="m10 256h492v246h-492z" fill="#ffcd69"/><g fill="#ffda8f"><path id="XMLID_678_" d="m414 256c0 24.301 19.699 44 44 44 0 24.301 19.699 44 44 44v-88z"/><path id="XMLID_782_" d="m98 256c0 24.301-19.699 44-44 44 0 24.301-19.699 44-44 44v-88z"/><path id="XMLID_1160_" d="m98 502c0-24.301-19.699-44-44-44 0-24.301-19.699-44-44-44v88z"/><path id="XMLID_1332_" d="m414 502c0-24.301 19.699-44 44-44 0-24.301 19.699-44 44-44v88z"/></g><path id="XMLID_327_" d="m54 300h404v158h-404z" fill="#c68a86"/><path id="XMLID_404_" d="m256 380c-22.091 0-40-17.909-40-40v-40h80v40c0 22.092-17.908 40-40 40z" fill="#ffda8f"/><path id="XMLID_1344_" d="m216 10h80v94h-80z" fill="#ffda8f"/><path id="XMLID_1688_" d="m360.584 209.5c0-29.133-23.617-52.75-52.75-52.75 29.133 0 52.75-23.617 52.75-52.75 0 29.133 23.617 52.75 52.75 52.75-29.133 0-52.75 23.617-52.75 52.75z" fill="#ffda8f"/><path id="XMLID_1691_" d="m163.667 156.75c0-29.133-23.617-52.75-52.75-52.75 29.133 0 52.75-23.617 52.75-52.75 0 29.133 23.617 52.75 52.75 52.75-29.133 0-52.75 23.617-52.75 52.75z" fill="#ffda8f"/><g id="XMLID_107_"><path id="XMLID_803_" d="m509.083 248.942v-.001l-50.099-50.264 51.679-89.684c.875-1.519 1.336-3.24 1.336-4.993 0-57.346-46.653-104-103.999-104h-304c-57.346 0-104 46.654-104 104 0 1.753.46 3.474 1.335 4.992l51.678 89.688-50.095 50.26v.001c-1.803 1.809-2.918 4.304-2.918 7.059v246c0 5.522 4.477 10 10 10h492c5.522 0 10-4.478 10-10v-246c0-2.755-1.115-5.25-2.917-7.058zm-489.083 104.124c8.979-1.688 17.174-5.611 24-11.159v74.186c-6.826-5.548-15.021-9.471-24-11.159zm384.933-87.066c1.688 8.979 5.611 17.174 11.159 24h-320.184c5.549-6.826 9.471-15.021 11.159-24zm43.067 182h-384v-138h142v30c0 27.57 22.43 50 50 50s50-22.43 50-50v-30h142zm-192-116.333c5.523 0 10-4.478 10-10v-11.667h20v30c0 16.542-13.458 30-30 30-16.542 0-30-13.458-30-30v-30h20v11.667c0 5.522 4.478 10 10 10zm160.093 136.333c-5.548 6.826-9.471 15.021-11.159 24h-297.867c-1.688-8.979-5.611-17.174-11.159-24zm51.907-126.093c6.826 5.548 15.021 9.471 24 11.159v51.867c-8.979 1.688-17.174 5.611-24 11.159zm24-9.41c-13.883-4.28-24-17.228-24-32.497 0-5.522-4.478-10-10-10-15.269 0-28.217-10.118-32.497-24h66.497zm-131.416-194.544c4.857 7.521 11.275 13.939 18.797 18.797-7.521 4.857-13.939 11.275-18.797 18.797-4.857-7.521-11.275-13.939-18.797-18.797 7.522-4.857 13.94-11.275 18.797-18.797zm52.75 28.797c5.522 0 10-4.478 10-10s-4.478-10-10-10c-20.128 0-37.042-13.987-41.557-32.75h112.918l-43.977 76.316h-65.571c7.044-13.962 21.511-23.566 38.187-23.566zm78.055-72.75h-185.389v-74h102c42.933 0 78.429 32.379 83.389 74zm-205.389-74v74h-20v-14c0-5.522-4.477-10-10-10s-10 4.478-10 10v14h-20v-74zm-182 0h102v72.711c-18.554-4.664-32.333-21.481-32.333-41.461 0-5.522-4.477-10-10-10s-10 4.478-10 10c0 23.572-19.178 42.75-42.75 42.75h-90.307c4.96-41.621 40.456-74 83.39-74zm78.464 84c-7.521 4.857-13.939 11.275-18.797 18.797-4.857-7.521-11.275-13.939-18.797-18.797 7.521-4.857 13.939-11.275 18.797-18.797 4.857 7.522 11.275 13.94 18.797 18.797zm-112.811 106.316h109.072c5.523 0 10-4.478 10-10s-4.477-10-10-10h-107.448l-43.974-76.316h83.614c23.572 0 42.75 19.178 42.75 42.75 0 5.522 4.477 10 10 10s10-4.478 10-10c0-23.572 19.178-42.75 42.75-42.75h132.974c-4.516 18.763-21.429 32.75-41.557 32.75-5.522 0-10 4.478-10 10s4.478 10 10 10c16.676 0 31.143 9.604 38.186 23.566h-77.296c-5.522 0-10 4.478-10 10s4.478 10 10 10h81.901c.417 5.14 4.712 9.184 9.959 9.184s9.542-4.044 9.959-9.184h71.804l35.566 35.684h-443.826zm16.845 55.684c-4.281 13.882-17.229 24-32.498 24-5.523 0-10 4.478-10 10 0 15.269-10.118 28.217-24 32.497v-66.497zm-66.498 159.503c13.882 4.28 24 17.228 24 32.497 0 5.522 4.477 10 10 10 15.269 0 28.217 10.118 32.497 24h-66.497zm405.503 66.497c4.28-13.882 17.228-24 32.497-24 5.522 0 10-4.478 10-10 0-15.269 10.117-28.217 24-32.497v66.497z"/><path id="XMLID_840_" d="m223.73 210.319c2.62 0 5.2-1.069 7.07-2.93 1.86-1.86 2.92-4.439 2.92-7.07 0-2.63-1.06-5.21-2.92-7.069-1.87-1.87-4.44-2.931-7.07-2.931-2.64 0-5.22 1.061-7.08 2.931-1.86 1.859-2.92 4.439-2.92 7.069 0 2.631 1.06 5.21 2.92 7.07 1.87 1.861 4.44 2.93 7.08 2.93z"/></g></g></svg>